<svg xmlns="http://www.w3.org/2000/svg" viewBox="0 0 24 24" fill="#25D366">
  <path d="M12.04 2C6.58 2 2.13 6.45 2.13 11.91c0 1.75.46 3.38 1.25 4.81L2.05 22l5.42-1.42a9.87 9.87 0 0 0 4.57 1.13c5.46 0 9.91-4.45 9.91-9.91S17.5 2 12.04 2zm5.52 14.13c-.23.65-1.33 1.24-1.83 1.32-.46.07-1.05.1-1.7-.1-.39-.13-.9-.29-1.54-.58-2.71-1.17-4.47-3.9-4.61-4.08-.13-.18-1.1-1.46-1.1-2.79 0-1.33.7-1.98 1-2.26.26-.24.56-.31.75-.31h.54c.17 0 .4-.07.63.48.23.55.79 1.93.86 2.07.07.14.12.3.02.48-.1.18-.15.29-.29.45-.14.16-.3.35-.42.47-.14.14-.29.29-.12.56.16.27.73 1.2 1.57 1.94.54.48 1.32.97 1.63 1.08.3.1.48.09.65-.05.18-.14.76-.88.96-1.19.2-.3.4-.25.67-.15.27.1 1.72.81 2.01.96.3.14.5.21.57.33.07.12.07.68-.16 1.33z"/>
</svg>
